<?xml version="1.0" encoding="UTF-8"?>
<!DOCTYPE svg PUBLIC "-//W3C//DTD SVG 1.1//EN" "http://www.w3.org/Graphics/SVG/1.1/DTD/svg11.dtd">
<!-- Creator: CorelDRAW -->
<svg xmlns="http://www.w3.org/2000/svg" xml:space="preserve" width="91.44mm" height="91.44mm" version="1.1" style="shape-rendering:geometricPrecision; text-rendering:geometricPrecision; image-rendering:optimizeQuality; fill-rule:evenodd; clip-rule:evenodd"
viewBox="0 0 9144 9144"
 xmlns:xlink="http://www.w3.org/1999/xlink"
 xmlns:xodm="http://www.corel.com/coreldraw/odm/2003">
 <defs>
  <style type="text/css">
   <![CDATA[
    .fil2 {fill:none}
    .fil1 {fill:black}
    .fil0 {fill:white}
   ]]>
  </style>
   <clipPath id="id0">
    <path d="M4572 49.32c2497.81,0 4522.68,2024.87 4522.68,4522.68 0,2497.81 -2024.87,4522.68 -4522.68,4522.68 -2497.81,0 -4522.68,-2024.87 -4522.68,-4522.68 0,-2497.81 2024.87,-4522.68 4522.68,-4522.68z"/>
   </clipPath>
 </defs>
 <g id="Camada_x0020_1">
  <metadata id="CorelCorpID_0Corel-Layer"/>
  <path class="fil0" d="M4572 49.32c2497.81,0 4522.68,2024.87 4522.68,4522.68 0,2497.81 -2024.87,4522.68 -4522.68,4522.68 -2497.81,0 -4522.68,-2024.87 -4522.68,-4522.68 0,-2497.81 2024.87,-4522.68 4522.68,-4522.68z"/>
  <g style="clip-path:url(#id0)">
   <g id="_2401305377232">
    <g>
     <path id="_1" class="fil1" d="M1263.88 2175.26l0 4941.97c0.07,78.29 -15.86,111.23 -33.04,180.66 112.98,-57.59 199.36,-141.03 295.93,-219.7l1742.03 -1388.27c73.48,-58.53 78.6,-62.45 87.17,-163.01l-5.68 -1698.06 -1090.29 1.88 2.17 828.44 249.02 3.21c2.95,462 63.81,348.34 -465.54,711.73 -32.46,-444.65 -6.32,-2055.48 -5.41,-2675.47l431.55 -10.96 39.11 88.92c9.85,30.61 -3.38,25.2 15.82,73.26l819.03 4.28 9.21 -678.88c-47.34,-92.26 -278.78,-206.53 -373.24,-262.76 -153.75,-91.48 -347.7,-58.76 -564.83,-58.76 -428.34,0.03 -856.68,0 -1285.02,0.13 78.05,156.01 132.01,75.97 132.01,321.39z"/>
     <path class="fil1" d="M5022.04 4322.6c126.15,-66.22 259.72,-198.43 373.28,-294.96l2616.8 -2174 -2983.3 -2.6 -6.78 2471.56z"/>
     <path class="fil1" d="M3428.12 3363.9l844.58 467.84 1.14 199.11 -307.84 220.12 -11.55 -324.25 -528.25 -1.75c3.93,400.97 43.78,1312.65 -21.33,1645.42 157.66,-107.85 308.42,-239.77 472.47,-369.42 163.73,-129.42 316.92,-252.03 472.77,-378.17 75.62,-61.22 436.18,-332.09 470.53,-379.54 73.41,-101.49 37.58,-647.03 26.68,-812.87 -101.69,-89.14 -752.58,-421.53 -892.06,-486.22l1.01 -717.82c52.7,-1.79 174.62,-10.12 220.22,-5.68 122.41,11.94 81.2,44.85 134.83,117.33l540.35 -2.53 0.06 -490.18c-334.91,-169.18 -178.71,-192.33 -650.18,-191.55 -256.73,0.42 -619.56,-21.18 -862.9,6.58 65.37,101.89 88.95,87.39 90.25,257.96l-0.78 1245.62z"/>
    </g>
   </g>
  </g>
  <path class="fil2" d="M4572 49.32c2497.81,0 4522.68,2024.87 4522.68,4522.68 0,2497.81 -2024.87,4522.68 -4522.68,4522.68 -2497.81,0 -4522.68,-2024.87 -4522.68,-4522.68 0,-2497.81 2024.87,-4522.68 4522.68,-4522.68z"/>
 </g>
</svg>
