<?xml version="1.0" encoding="UTF-8"?>
<!DOCTYPE svg PUBLIC "-//W3C//DTD SVG 1.1//EN" "http://www.w3.org/Graphics/SVG/1.1/DTD/svg11.dtd">
<!-- Creator: CorelDRAW -->
<svg xmlns="http://www.w3.org/2000/svg" xml:space="preserve" width="91.44mm" height="91.44mm" version="1.1" style="shape-rendering:geometricPrecision; text-rendering:geometricPrecision; image-rendering:optimizeQuality; fill-rule:evenodd; clip-rule:evenodd"
viewBox="0 0 9144 9144"
 xmlns:xlink="http://www.w3.org/1999/xlink"
 xmlns:xodm="http://www.corel.com/coreldraw/odm/2003">
 <defs>
  <style type="text/css">
   <![CDATA[
    .fil0 {fill:black}
   ]]>
  </style>
 </defs>
 <g id="Camada_x0020_1">
  <metadata id="CorelCorpID_0Corel-Layer"/>
  <g id="_1807060494464">
   <path class="fil0" d="M629.14 1715.37l0 5890.22c0.08,93.3 -18.9,132.57 -39.38,215.32 134.65,-68.64 237.62,-168.09 352.72,-261.85l2076.27 -1654.65c87.58,-69.76 93.69,-74.44 103.89,-194.29l-6.76 -2023.87 -1299.49 2.24 2.59 987.39 296.79 3.83c3.52,550.65 76.07,415.18 -554.86,848.29 -38.68,-529.97 -7.53,-2449.87 -6.45,-3188.82l514.35 -13.06 46.62 105.98c11.75,36.48 -4.02,30.03 18.86,87.31l976.18 5.1 10.98 -809.14c-56.43,-109.96 -332.28,-246.16 -444.87,-313.18 -183.23,-109.03 -414.4,-70.03 -673.2,-70.03 -510.53,0.04 -1021.06,0 -1531.58,0.15 93.03,185.95 157.34,90.56 157.34,383.06z"/>
   <path class="fil0" d="M5108.4 4274.74c150.35,-78.93 309.55,-236.5 444.9,-351.56l3118.9 -2591.14 -3555.72 -3.09 -8.08 2945.79z"/>
   <path class="fil0" d="M3208.64 3132.09l1006.64 557.6 1.35 237.31 -366.9 262.36 -13.76 -386.46 -629.61 -2.09c4.68,477.91 52.18,1564.51 -25.43,1961.14 187.91,-128.55 367.6,-285.78 563.13,-440.3 195.14,-154.25 377.73,-300.39 563.48,-450.74 90.13,-72.97 519.88,-395.81 560.81,-452.36 87.5,-120.97 44.79,-771.18 31.81,-968.84 -121.21,-106.25 -896.99,-502.41 -1063.23,-579.51l1.2 -855.56c62.81,-2.13 208.13,-12.06 262.47,-6.76 145.91,14.22 96.78,53.45 160.71,139.83l644.03 -3.01 0.07 -584.24c-399.17,-201.63 -213,-229.23 -774.93,-228.3 -305.99,0.5 -738.45,-25.24 -1028.47,7.84 77.91,121.44 106.01,104.17 107.56,307.46l-0.93 1484.63z"/>
  </g>
 </g>
</svg>
